<svg width="20" height="20" viewBox="0 0 20 20" fill="none" xmlns="http://www.w3.org/2000/svg">
<path fill-rule="evenodd" clip-rule="evenodd" d="M11.6314 6.44399C11.7006 6.37816 11.7889 6.34066 11.8756 6.34066H14.1256C14.3564 6.34066 14.5423 6.15399 14.5423 5.92399V2.92399C14.5423 2.69399 14.3564 2.50732 14.1256 2.50732H11.8756C10.7873 2.50732 9.71394 2.94899 8.92894 3.72149C8.14232 4.51316 7.70898 5.56149 7.70898 6.67399V8.50817H5.87565C5.64482 8.50817 5.45898 8.694 5.45898 8.92483V11.924C5.45898 12.1548 5.64482 12.3407 5.87565 12.3407H7.70898V17.924C7.70898 18.1548 7.89565 18.3407 8.12565 18.3407H11.1256C11.3556 18.3407 11.5423 18.1548 11.5423 17.924V12.3407H14.1256C14.3564 12.3407 14.5423 12.1548 14.5423 11.924V8.92483C14.5423 8.694 14.3564 8.50817 14.1256 8.50817H11.5423V6.67399C11.5423 6.58399 11.5773 6.49899 11.6314 6.44399Z" fill="#121417"/>
</svg>
