<svg width="20" height="20" viewBox="0 0 20 20" fill="none" xmlns="http://www.w3.org/2000/svg">
<path fill-rule="evenodd" clip-rule="evenodd" d="M16.8315 3.77664C14.914 1.92081 11.909 1.92081 9.99147 3.77664C9.66064 4.09664 9.65147 4.62414 9.97147 4.95497C10.2923 5.28664 10.819 5.29414 11.1498 4.97414C12.419 3.74747 14.4056 3.74914 15.6731 4.97497C16.2981 5.57831 16.6515 6.38831 16.6665 7.25581C16.6815 8.12331 16.3573 8.94582 15.7631 9.56082L13.8798 11.4433C13.7731 11.5533 13.6573 11.65 13.534 11.7425C12.8398 12.2633 11.9873 12.48 11.1265 12.36C10.264 12.2358 9.50147 11.7833 8.97897 11.0858C8.70314 10.7167 8.18151 10.64 7.81234 10.9167C7.44401 11.1925 7.36901 11.7142 7.64484 12.0833C8.43397 13.1383 9.58647 13.8233 10.8906 14.0092C11.1265 14.0433 11.3623 14.06 11.5965 14.06C12.6523 14.06 13.6748 13.7217 14.5323 13.0767C14.7381 12.9242 14.9148 12.77 15.0665 12.6142L16.9515 10.7292C17.8648 9.78332 18.3556 8.53999 18.3323 7.22747C18.3098 5.91331 17.7765 4.68831 16.8315 3.77664Z" fill="#121417"/>
<path fill-rule="evenodd" clip-rule="evenodd" d="M8.84923 15.0266C7.58092 16.2541 5.59425 16.2524 4.32592 15.0258C3.70009 14.4216 3.34676 13.6099 3.33259 12.7391C3.31842 11.8716 3.64259 11.0516 4.23759 10.4391L6.10176 8.56659C6.22092 8.45075 6.35009 8.34242 6.46342 8.25155C7.89926 7.17989 9.9434 7.47489 11.0209 8.90909C11.2976 9.27825 11.8184 9.35075 12.1876 9.07492C12.5559 8.79825 12.6301 8.27572 12.3542 7.90822C10.7251 5.73989 7.63509 5.29489 5.44342 6.93322C5.26676 7.07572 5.09925 7.21739 4.93175 7.37905L3.04925 9.27075C2.13592 10.2116 1.64426 11.4524 1.66676 12.7666C1.68842 14.0833 2.22175 15.3116 3.16842 16.2241C4.12675 17.1524 5.35675 17.6158 6.58759 17.6158C7.81842 17.6158 9.04923 17.1524 10.0084 16.2241C10.3392 15.9049 10.3476 15.3774 10.0276 15.0458C9.70756 14.7141 9.18006 14.7066 8.84923 15.0266Z" fill="#121417"/>
</svg>
