<svg xmlns="http://www.w3.org/2000/svg" width="152" height="22" viewBox="0 0 152 22" fill="none">
  <g clip-path="url(#clip0_1588_18494)">
    <path d="M4.39893 1.28434L5.50908 0.174179C5.70707 -0.0238112 6.0182 -0.0238112 6.21619 0.174179L11.1023 5.06029L9.63859 6.524L4.39893 1.28434Z" fill="#F9F9F9"/>
    <path d="M0.947754 15.4223L2.41146 13.9586L7.65113 19.1983L6.54097 20.3085C6.34298 20.5064 6.03185 20.5064 5.83386 20.3085L0.947754 15.4223Z" fill="#F9F9F9"/>
    <path d="M1.46273 4.21323L-0.000976562 5.67694L10.5773 16.2553L12.0411 14.7915L1.46273 4.21323Z" fill="#F9F9F9"/>
    <path d="M26.14 17.835C25.13 17.525 24.34 17.125 23.75 16.615L24.65 14.595C25.22 15.045 25.93 15.415 26.76 15.705C27.59 15.995 28.43 16.135 29.27 16.135C30.31 16.135 31.09 15.965 31.6 15.635C32.11 15.305 32.37 14.865 32.37 14.315C32.37 13.915 32.23 13.585 31.94 13.325C31.65 13.065 31.29 12.865 30.85 12.715C30.41 12.565 29.81 12.405 29.05 12.215C27.98 11.965 27.12 11.705 26.46 11.455C25.8 11.205 25.23 10.805 24.76 10.265C24.29 9.725 24.05 8.995 24.05 8.075C24.05 7.305 24.26 6.595 24.68 5.965C25.1 5.335 25.73 4.825 26.58 4.455C27.43 4.085 28.46 3.895 29.69 3.895C30.54 3.895 31.38 4.005 32.21 4.215C33.04 4.425 33.75 4.735 34.35 5.135L33.53 7.155C32.92 6.795 32.28 6.525 31.61 6.335C30.94 6.145 30.3 6.055 29.67 6.055C28.64 6.055 27.88 6.225 27.38 6.575C26.88 6.925 26.63 7.385 26.63 7.955C26.63 8.355 26.77 8.685 27.06 8.935C27.35 9.185 27.71 9.385 28.15 9.535C28.59 9.685 29.19 9.845 29.95 10.035C30.99 10.275 31.84 10.525 32.51 10.785C33.18 11.045 33.75 11.445 34.22 11.975C34.69 12.505 34.93 13.225 34.93 14.135C34.93 14.905 34.72 15.605 34.3 16.235C33.88 16.865 33.24 17.365 32.39 17.735C31.54 18.105 30.5 18.295 29.27 18.295C28.19 18.295 27.15 18.145 26.14 17.835Z" fill="#F9F9F9"/>
    <path d="M48.6099 7.415V18.095H46.2299V16.735C45.8299 17.215 45.3299 17.585 44.7299 17.845C44.1299 18.105 43.4799 18.235 42.7899 18.235C41.3599 18.235 40.2399 17.835 39.4199 17.045C38.5999 16.255 38.1899 15.075 38.1899 13.515V7.415H40.6899V13.175C40.6899 14.135 40.9099 14.855 41.3399 15.325C41.7699 15.795 42.3899 16.035 43.1899 16.035C44.0799 16.035 44.7899 15.755 45.3199 15.205C45.8499 14.655 46.1099 13.855 46.1099 12.815V7.415H48.6099Z" fill="#F9F9F9"/>
    <path d="M61.6001 7.975C62.4201 8.425 63.0601 9.065 63.5301 9.895C64.0001 10.725 64.2301 11.675 64.2301 12.755C64.2301 13.835 64.0001 14.795 63.5301 15.625C63.0601 16.455 62.4201 17.105 61.6001 17.555C60.7801 18.005 59.8501 18.235 58.8101 18.235C57.3701 18.235 56.2301 17.755 55.3901 16.795V21.975H52.8901V7.415H55.2701V8.815C55.6801 8.305 56.1901 7.925 56.8001 7.675C57.4101 7.425 58.0801 7.295 58.8101 7.295C59.8501 7.295 60.7801 7.525 61.6001 7.975ZM60.8001 15.175C61.3901 14.565 61.6901 13.755 61.6901 12.755C61.6901 11.755 61.3901 10.945 60.8001 10.335C60.2101 9.725 59.4501 9.415 58.5301 9.415C57.9301 9.415 57.3901 9.555 56.9101 9.825C56.4301 10.095 56.0501 10.485 55.7701 10.995C55.4901 11.505 55.3501 12.085 55.3501 12.755C55.3501 13.425 55.4901 14.005 55.7701 14.515C56.0501 15.025 56.4301 15.415 56.9101 15.685C57.3901 15.955 57.9301 16.095 58.5301 16.095C59.4501 16.095 60.2101 15.785 60.8001 15.175Z" fill="#F9F9F9"/>
    <path d="M75.59 14.955L76.91 16.495C76.44 17.065 75.84 17.505 75.11 17.795C74.38 18.085 73.55 18.235 72.63 18.235C71.46 18.235 70.42 18.005 69.53 17.535C68.64 17.065 67.95 16.415 67.46 15.585C66.97 14.755 66.73 13.805 66.73 12.755C66.73 11.705 66.97 10.775 67.44 9.945C67.91 9.115 68.57 8.465 69.4 7.995C70.23 7.525 71.18 7.295 72.23 7.295C73.28 7.295 74.14 7.515 74.96 7.945C75.78 8.375 76.43 8.995 76.91 9.805C77.39 10.615 77.63 11.555 77.63 12.635L69.45 14.235C69.7 14.845 70.11 15.315 70.67 15.635C71.23 15.955 71.9 16.115 72.69 16.115C73.85 16.115 74.82 15.725 75.59 14.955ZM70 10.195C69.43 10.795 69.15 11.605 69.15 12.615V12.635L75.19 11.475C75.02 10.825 74.67 10.295 74.14 9.895C73.61 9.495 72.98 9.295 72.23 9.295C71.31 9.295 70.57 9.595 70 10.195Z" fill="#F9F9F9"/>
    <path d="M87.2098 7.295V9.675C86.9998 9.635 86.7998 9.615 86.6298 9.615C85.6598 9.615 84.8998 9.895 84.3498 10.465C83.7998 11.035 83.5298 11.845 83.5298 12.915V18.095H81.0298V7.415H83.4098V8.975C84.1298 7.855 85.3998 7.295 87.2098 7.295Z" fill="#F9F9F9"/>
    <path d="M100.67 7.415V18.095H98.2901V16.715C97.8801 17.225 97.3701 17.605 96.7601 17.855C96.1501 18.105 95.4801 18.235 94.7501 18.235C93.7101 18.235 92.7801 18.005 91.9601 17.555C91.1401 17.105 90.5001 16.465 90.0401 15.635C89.5801 14.805 89.3501 13.845 89.3501 12.755C89.3501 11.665 89.5801 10.705 90.0401 9.885C90.5001 9.065 91.1401 8.425 91.9601 7.975C92.7801 7.525 93.7101 7.295 94.7501 7.295C95.4401 7.295 96.0801 7.415 96.6601 7.655C97.2401 7.895 97.7401 8.245 98.1701 8.715V7.415H100.67ZM97.3101 15.175C97.9101 14.565 98.2101 13.755 98.2101 12.755C98.2101 11.755 97.9101 10.945 97.3101 10.335C96.7101 9.725 95.9501 9.415 95.0301 9.415C94.1101 9.415 93.3501 9.725 92.7601 10.335C92.1701 10.945 91.8701 11.755 91.8701 12.755C91.8701 13.755 92.1701 14.565 92.7601 15.175C93.3501 15.785 94.1101 16.095 95.0301 16.095C95.9501 16.095 96.7101 15.785 97.3101 15.175Z" fill="#F9F9F9"/>
    <path d="M112.4 17.325C111.78 16.715 111.47 15.865 111.47 14.755V3.255H113.97V14.575C113.97 15.645 114.47 16.175 115.47 16.175C115.8 16.175 116.1 16.105 116.37 15.975L116.49 17.975C116.02 18.145 115.52 18.235 114.99 18.235C113.88 18.235 113.02 17.935 112.4 17.325Z" fill="#F9F9F9"/>
    <path d="M119.31 5.225C119 4.935 118.85 4.585 118.85 4.155C118.85 3.725 119 3.375 119.31 3.085C119.62 2.795 120 2.655 120.45 2.655C120.9 2.655 121.28 2.795 121.59 3.065C121.9 3.335 122.05 3.685 122.05 4.095C122.05 4.535 121.9 4.905 121.6 5.205C121.3 5.505 120.92 5.655 120.45 5.655C119.98 5.655 119.62 5.515 119.31 5.225ZM119.19 7.415H121.69V18.095H119.19V7.415Z" fill="#F9F9F9"/>
    <path d="M135.27 8.475C136.08 9.265 136.49 10.425 136.49 11.975V18.095H133.99V12.295C133.99 11.365 133.77 10.655 133.33 10.185C132.89 9.715 132.26 9.475 131.45 9.475C130.53 9.475 129.8 9.755 129.27 10.305C128.74 10.855 128.47 11.655 128.47 12.695V18.095H125.97V7.415H128.35V8.795C128.76 8.305 129.28 7.925 129.91 7.675C130.54 7.425 131.24 7.295 132.03 7.295C133.38 7.295 134.46 7.685 135.27 8.475Z" fill="#F9F9F9"/>
    <path d="M145.03 13.515L143.17 15.275V18.095H140.67V3.255H143.17V12.215L148.35 7.415H151.35L146.89 11.895L151.77 18.095H148.73L145.03 13.515Z" fill="#F9F9F9"/>
  </g>
  <defs>
    <clipPath id="clip0_1588_18494">
      <rect width="151.77" height="21.95" fill="white" transform="translate(0 0.0250015)"/>
    </clipPath>
  </defs>
</svg>