<svg width="142" height="48" viewBox="0 0 142 48" fill="none" xmlns="http://www.w3.org/2000/svg">
<g id="logo-beliesimv2 2" clip-path="url(#clip0_227_12377)">
<path id="Vector" d="M34.6251 13.0926L22.5975 1.12085C21.9757 0.501763 21.1313 0.146208 20.2491 0.142025L3.39025 -0.000197597C1.52078 -0.0169296 0 1.48895 0 3.34621V31.3473C2.09633 42.4657 12.7502 33.5768 12.7502 33.5768L18.4889 28.2267L7.5325 23.5836C7.22582 23.4539 7.18801 23.0356 7.46528 22.8516C8.02402 22.4793 8.7088 22.3538 9.36416 22.496L21.5136 25.1439L26.0802 20.4714C26.5129 20.0239 27.2313 20.0322 27.6556 20.484L27.8194 20.6597C28.2269 21.0905 28.2059 21.7682 27.7816 22.1781L23.0722 26.7376L25.8323 38.7595C25.9878 39.433 25.8491 40.1399 25.4542 40.7088C25.2652 40.9807 24.8535 40.9389 24.7232 40.6335L20.0559 29.787L14.6323 35.4508C7.60392 46.6487 15.6784 47.891 18.4889 48.004H32.2557C34.1126 48.004 35.6166 46.5065 35.6166 44.6576V15.4602C35.6166 14.5734 35.2637 13.7201 34.6335 13.0926H34.6251Z" fill="#FF6000"/>
<path id="Vector_2" d="M56.7859 27.6831C56.7859 30.6447 54.8828 33.4724 50.7825 33.4724H43.813V14.5234H49.7617C54.051 14.5234 55.4961 17.2716 55.4961 19.6727C55.4961 20.9652 55.076 22.1741 54.0216 23.0107C55.8952 23.9937 56.7817 25.8343 56.7817 27.679L56.7859 27.6831ZM47.7284 18.1543V21.8897H49.6062C50.8666 21.8897 51.5891 21.1953 51.5891 20.0199C51.5891 18.8445 50.8666 18.1501 49.6315 18.1501H47.7284V18.1543ZM52.8201 27.6831C52.8201 26.3237 51.963 25.5205 50.6229 25.5205H47.7284V29.8416H50.6229C51.963 29.8416 52.8201 29.0426 52.8201 27.679V27.6831Z" fill="#23303D"/>
<path id="Vector_3" d="M63.2425 18.1835V21.919H68.5485V25.6H63.2425V29.8165H70.1029V33.4724H59.3271V14.5234H70.1029V18.1794H63.2425V18.1835Z" fill="#23303D"/>
<path id="Vector_4" d="M76.9086 29.8165H83.4202V33.4724H72.9932V14.5234H76.9043V29.8165H76.9086Z" fill="#23303D"/>
<path id="Vector_5" d="M89.4786 14.5276V33.4766H85.5674V14.5276H89.4786Z" fill="#23303D"/>
<path id="Vector_6" d="M95.2547 16.3346V22.856H101.766V24.6421H95.2547V31.6654H103.409V33.4724H93.3433V14.5234H103.409V16.3305H95.2547V16.3346Z" fill="#23303D"/>
<path id="Vector_7" d="M115.516 19.9488C115.516 17.4975 113.928 15.954 111.614 15.954C109.631 15.954 108.047 17.1378 108.047 19.1122C108.047 20.8983 109.232 21.8813 111.286 22.5883L113.302 23.2743C115.928 24.1862 117.697 25.6251 117.697 28.5281C117.697 31.7867 114.932 33.8531 111.735 33.8531C108.538 33.8531 105.694 31.5943 105.694 27.9927V27.4531H107.606V27.976C107.606 30.3686 109.353 32.046 111.735 32.046C114.117 32.046 115.785 30.6782 115.785 28.6034C115.785 26.6583 114.588 25.7046 112.34 24.9391L110.358 24.2615C107.875 23.4165 106.135 21.9733 106.135 19.1875C106.135 16.251 108.421 14.1428 111.614 14.1428C115.088 14.1428 117.411 16.4225 117.411 19.9279V20.3462H115.521V19.9446L115.516 19.9488Z" fill="#23303D"/>
<path id="Vector_8" d="M122.914 14.5276V33.4766H121.003V14.5276H122.914Z" fill="#23303D"/>
<path id="Vector_9" d="M142 14.5276V33.4766H140.089V18.6479L134.808 26.9093H134.325L129.048 18.6479V33.4766H127.137V14.5276H128.498L134.564 24.1443L140.639 14.5276H142Z" fill="#23303D"/>
</g>
<defs>
<clipPath id="clip0_227_12377">
<rect width="142" height="48" fill="white"/>
</clipPath>
</defs>
</svg>
