<?xml version="1.0" standalone="no"?>
<!DOCTYPE svg PUBLIC "-//W3C//DTD SVG 20010904//EN"
 "http://www.w3.org/TR/2001/REC-SVG-20010904/DTD/svg10.dtd">
<svg version="1.0" xmlns="http://www.w3.org/2000/svg"
 width="2084.000000pt" height="2084.000000pt" viewBox="0 0 2084.000000 2084.000000"
 preserveAspectRatio="xMidYMid meet">
<metadata>
Created by potrace 1.14, written by Peter Selinger 2001-2017
</metadata>
<g transform="translate(0.000000,2084.000000) scale(0.100000,-0.100000)"
fill="#000000" stroke="none">
<path d="M0 10420 l0 -10420 10415 0 10415 0 -2 10418 -3 10417 -10412 3
-10413 2 0 -10420z m11983 4152 l1336 -1484 -416 -374 c-228 -206 -418 -374
-422 -374 -4 0 -79 80 -167 178 -88 97 -693 768 -1343 1491 l-1183 1313 48 43
c27 24 211 189 409 369 261 236 366 325 381 323 15 -1 458 -486 1357 -1485z
m-2972 -1744 c3150 -3498 4516 -5016 4527 -5030 11 -14 -38 -62 -385 -374
-218 -198 -407 -367 -419 -376 -22 -18 -28 -11 -1086 1165 -586 650 -1808
2008 -2717 3017 l-1652 1834 43 37 c24 21 210 188 413 372 204 185 375 336
381 336 6 1 409 -441 895 -981z m685 -5805 c736 -817 1340 -1490 1342 -1494 3
-6 -764 -704 -810 -737 -10 -8 -24 -10 -32 -5 -22 13 -2677 2965 -2674 2974 4
10 821 748 829 748 3 1 608 -668 1345 -1486z"/>
</g>
</svg>
